<svg width="143" height="137" viewBox="0 0 143 137" fill="none" xmlns="http://www.w3.org/2000/svg">
<path d="M142.78 68.1678C142.78 75.2178 129.94 80.1578 127.87 86.5178C125.8 92.8778 133.14 104.638 129.15 110.138C125.16 115.638 111.83 112.178 106.29 116.208C100.75 120.238 100.06 133.938 93.46 136.078C86.86 138.218 78.45 127.538 71.39 127.538C64.33 127.538 55.69 138.148 49.32 136.078C42.72 133.938 41.98 120.198 36.49 116.208C30.94 112.168 17.66 115.678 13.63 110.138C9.6 104.598 17.05 93.1178 14.91 86.5278C12.77 79.9378 0 75.2278 0 68.1778C0 61.1278 12.84 56.1878 14.91 49.8278C16.98 43.4678 9.64001 31.7078 13.63 26.2078C17.62 20.7078 30.95 24.1678 36.49 20.1378C42.03 16.1078 42.72 2.40779 49.32 0.267794C55.68 -1.80221 64.33 8.8078 71.39 8.8078C78.45 8.8078 87.09 -1.80221 93.46 0.267794C99.83 2.33779 100.8 16.1478 106.29 20.1378C111.84 24.1778 125.12 20.6678 129.15 26.2078C133.18 31.7478 125.73 43.2278 127.87 49.8178C130.01 56.4078 142.78 61.1178 142.78 68.1678Z" fill="#FF6C9A"/>
<path d="M55.1 25.1679L57.59 24.5479L62.14 31.2279L63 23.1879L65.47 22.5679L67.88 32.1779L66.14 32.6179L64.6 26.4479C64.5 26.0579 64.44 25.6979 64.4 25.3779L64.29 25.4079C64.33 25.7679 64.35 26.1379 64.34 26.5179L63.55 33.2679L61.86 33.6879L58 28.0979C57.8 27.7579 57.64 27.4379 57.54 27.1179L57.43 27.1479C57.53 27.3979 57.63 27.7379 57.73 28.1679L59.27 34.3379L57.53 34.7779L55.12 25.1679H55.1Z" fill="#E1EF40"/>
<path d="M71.88 22.4878L74.43 22.5878L77.75 32.6278L75.68 32.5478L75 30.3778L70.7 30.2178L69.86 32.3278L67.81 32.2478L71.89 22.4878H71.88ZM74.53 28.8378L73.39 25.3678C73.24 24.8478 73.15 24.4478 73.11 24.1578H73.02C72.99 24.3678 72.91 24.6578 72.77 25.0278C72.73 25.1278 72.69 25.2378 72.66 25.3478L71.24 28.7278L74.52 28.8478L74.53 28.8378Z" fill="#E1EF40"/>
<path d="M79.4 32.7677C78.8 32.1377 78.4 31.3877 78.21 30.5177C78.02 29.6477 78.06 28.7277 78.35 27.7577C78.64 26.7877 79.11 25.9977 79.75 25.3777C80.4 24.7577 81.15 24.3477 82.02 24.1577C82.89 23.9577 83.78 23.9977 84.7 24.2777C85.52 24.5177 86.21 24.8777 86.76 25.3577C87.31 25.8277 87.71 26.3677 87.96 26.9577C88.21 27.5577 88.32 28.1577 88.29 28.7877H86.19C86.23 28.1377 86.08 27.5477 85.73 27.0277C85.39 26.5077 84.88 26.1477 84.2 25.9477C83.64 25.7777 83.1 25.7677 82.57 25.9177C82.04 26.0577 81.58 26.3477 81.19 26.7577C80.79 27.1777 80.5 27.7077 80.31 28.3477C80.12 28.9877 80.07 29.5977 80.17 30.1577C80.27 30.7277 80.49 31.2077 80.83 31.6077C81.17 32.0077 81.61 32.2877 82.15 32.4477C82.67 32.5977 83.14 32.6377 83.57 32.5577C84 32.4777 84.37 32.2977 84.66 32.0077C84.96 31.7177 85.17 31.3477 85.29 30.8977L85.58 31.4077L82.4 30.4677L82.86 28.9177L87.45 30.2777L87.32 30.7977C87.09 31.6977 86.7 32.4377 86.15 33.0377C85.6 33.6277 84.93 34.0277 84.15 34.2177C83.37 34.4077 82.53 34.3677 81.64 34.1077C80.74 33.8377 79.98 33.3877 79.38 32.7577L79.4 32.7677Z" fill="#E1EF40"/>
<path d="M91.8 27.0779L93.47 28.1179L93.87 35.0679C93.91 35.7579 93.9 36.2979 93.84 36.6979L93.9 36.7379C94.1 36.3279 94.37 35.8179 94.73 35.2179L97.56 30.6579L99.16 31.6479L93.93 40.0679L92.26 39.0279L91.86 32.0779C91.83 31.3779 91.84 30.8279 91.9 30.4379L91.84 30.3979C91.64 30.8079 91.36 31.3179 91.01 31.9179L88.17 36.4879L86.57 35.4979L91.8 27.0779Z" fill="#E1EF40"/>
<path d="M101.27 33.6079L102.76 34.9579L96.11 42.3079L94.62 40.9579L101.27 33.6079Z" fill="#E1EF40"/>
<path d="M104.68 36.7578L109.08 42.0978L107.81 43.1378L104.68 39.3478L102.56 41.0978L105.36 44.4978L104.1 45.5378L101.3 42.1378L98.3 44.6178L97.02 43.0678L104.67 36.7578H104.68Z" fill="#E1EF40"/>
<path d="M110.21 43.9377L111.17 45.7077L103.9 49.6478L105.99 53.5078L104.55 54.2878L101.5 48.6577L110.21 43.9377Z" fill="#E1EF40"/>
<path d="M107.55 54.1877L112.83 48.3877L113.6 50.5377L110.32 53.9477C110.08 54.1877 109.85 54.3577 109.62 54.4777L109.64 54.5477C109.9 54.4977 110.19 54.4877 110.52 54.5177L115.22 55.0777L115.98 57.1977L108.22 56.0577L105.41 57.0677L104.74 55.1877L107.55 54.1777V54.1877Z" fill="#E1EF40"/>
<path d="M106.17 59.0179C106.35 58.7079 106.61 58.5178 106.93 58.4378C107.26 58.3578 107.58 58.4179 107.88 58.6179C108.18 58.8179 108.38 59.0878 108.46 59.4378C108.54 59.7878 108.49 60.1179 108.31 60.4179C108.12 60.7279 107.87 60.9179 107.54 60.9879C107.22 61.0679 106.91 61.0079 106.6 60.8179C106.29 60.6279 106.11 60.3579 106.02 60.0079C105.94 59.6579 105.99 59.3279 106.17 59.0179Z" fill="#E1EF40"/>
<path d="M116.92 61.6577L116.98 64.2177L109.46 67.1977L117.12 69.7977L117.18 72.3477L107.27 72.5977L107.23 70.7977L113.58 70.6377C113.99 70.6277 114.35 70.6377 114.67 70.6777V70.5677C114.31 70.5277 113.94 70.4677 113.57 70.3677L107.16 68.1177L107.12 66.3777L113.42 63.8277C113.79 63.7077 114.15 63.6277 114.48 63.5877V63.4777C114.21 63.5177 113.86 63.5477 113.42 63.5477L107.07 63.7077L107.03 61.9077L116.94 61.6577H116.92Z" fill="#E1EF40"/>
<path d="M116.54 75.8778L114.84 82.7978L113.26 82.4078L114.48 77.4478L111.98 76.8378L110.94 81.0678L109.36 80.6778L110.4 76.4478L108.02 75.8678L106.81 80.8078L105.23 80.4178L106.92 73.5278L116.54 75.8878V75.8778Z" fill="#E1EF40"/>
<path d="M113.89 85.4577L112.12 88.8577C111.65 89.7677 111.05 90.4777 110.32 90.9877C109.59 91.4977 108.8 91.7677 107.94 91.7977C107.08 91.8377 106.21 91.6277 105.34 91.1677C104.47 90.7177 103.8 90.1277 103.33 89.3977C102.86 88.6677 102.63 87.8677 102.62 86.9777C102.62 86.0977 102.85 85.1977 103.33 84.2777L105.1 80.8777L113.89 85.4477V85.4577ZM104.39 86.6677C104.41 87.2177 104.58 87.7277 104.91 88.1877C105.23 88.6477 105.69 89.0377 106.29 89.3377C106.88 89.6477 107.46 89.7977 108.03 89.7977C108.59 89.7977 109.11 89.6477 109.57 89.3477C110.03 89.0477 110.42 88.6077 110.72 88.0277L111.53 86.4677L105.62 83.3977L104.81 84.9577C104.51 85.5377 104.37 86.0977 104.39 86.6577V86.6677Z" fill="#E1EF40"/>
<path d="M108.23 95.1777L107 96.7677L99.14 90.7277L100.37 89.1377L108.23 95.1777Z" fill="#E1EF40"/>
<path d="M103.31 100.848L101.44 102.578L92 97.8079L93.52 96.4079L95.53 97.4579L98.69 94.5379L97.8 92.4479L99.31 91.0579L103.31 100.858V100.848ZM96.95 98.2178L100.21 99.8679C100.68 100.128 101.03 100.348 101.27 100.528L101.33 100.468C101.2 100.298 101.05 100.028 100.89 99.6779C100.85 99.5779 100.8 99.4779 100.74 99.3679L99.36 95.9779L96.95 98.2079V98.2178Z" fill="#E1EF40"/>
<path d="M88.19 110.978L85.71 111.628L81.09 104.998L80.32 113.048L77.85 113.698L75.34 104.108L77.08 103.648L78.69 109.798C78.79 110.188 78.86 110.548 78.9 110.868L79.01 110.838C78.96 110.478 78.95 110.108 78.95 109.728L79.67 102.968L81.35 102.528L85.28 108.068C85.49 108.408 85.64 108.728 85.75 109.038L85.86 109.008C85.76 108.758 85.65 108.428 85.55 107.988L83.94 101.838L85.68 101.378L88.19 110.968V110.978Z" fill="#E1EF40"/>
<path d="M71.44 113.848L68.89 113.778L65.46 103.778L67.53 103.828L68.24 105.988L72.54 106.098L73.36 103.978L75.41 104.028L71.44 113.838V113.848ZM68.72 107.528L69.9 110.988C70.06 111.498 70.15 111.908 70.19 112.198H70.27C70.3 111.988 70.37 111.698 70.51 111.328C70.55 111.228 70.59 111.118 70.62 111.008L72 107.618L68.72 107.528Z" fill="#E1EF40"/>
<path d="M63.81 103.658C64.42 104.278 64.82 105.028 65.03 105.898C65.24 106.768 65.2 107.688 64.92 108.658C64.64 109.628 64.18 110.428 63.54 111.058C62.9 111.688 62.15 112.098 61.28 112.308C60.42 112.518 59.52 112.488 58.6 112.218C57.77 111.978 57.08 111.628 56.52 111.158C55.96 110.688 55.56 110.158 55.3 109.568C55.05 108.978 54.93 108.368 54.95 107.748L57.05 107.718C57.02 108.378 57.18 108.968 57.53 109.478C57.88 109.998 58.39 110.348 59.07 110.548C59.63 110.708 60.18 110.718 60.7 110.568C61.22 110.418 61.68 110.128 62.07 109.708C62.46 109.288 62.75 108.748 62.93 108.108C63.11 107.468 63.15 106.858 63.05 106.298C62.95 105.738 62.72 105.248 62.37 104.858C62.02 104.458 61.58 104.188 61.05 104.028C60.53 103.878 60.06 103.848 59.63 103.928C59.2 104.008 58.84 104.198 58.54 104.488C58.25 104.778 58.04 105.148 57.92 105.608L57.62 105.098L60.81 106.008L60.37 107.558L55.77 106.248L55.89 105.718C56.11 104.818 56.49 104.068 57.03 103.468C57.57 102.868 58.24 102.468 59.01 102.268C59.79 102.068 60.63 102.098 61.53 102.348C62.44 102.608 63.2 103.048 63.8 103.668L63.81 103.658Z" fill="#E1EF40"/>
<path d="M51.49 109.488L49.81 108.468L49.33 101.528C49.28 100.838 49.29 100.298 49.34 99.8978L49.28 99.8578C49.09 100.268 48.82 100.778 48.47 101.388L45.69 105.978L44.08 104.998L49.21 96.5178L50.89 97.5378L51.37 104.478C51.41 105.178 51.4 105.728 51.35 106.118L51.41 106.158C51.6 105.748 51.87 105.238 52.22 104.628L55.01 100.028L56.62 101.008L51.49 109.488Z" fill="#E1EF40"/>
<path d="M41.93 103.058L40.42 101.728L46.98 94.2979L48.49 95.6279L41.93 103.058Z" fill="#E1EF40"/>
<path d="M38.48 99.9477L34.02 94.6577L35.28 93.5977L38.45 97.3477L40.55 95.5777L37.71 92.2077L38.95 91.1577L41.79 94.5277L44.77 92.0177L46.07 93.5577L38.49 99.9477H38.48Z" fill="#E1EF40"/>
<path d="M32.87 92.8377L31.89 91.0777L39.11 87.0577L36.98 83.2277L38.41 82.4277L41.52 88.0177L32.86 92.8377H32.87Z" fill="#E1EF40"/>
<path d="M35.42 82.5577L30.21 88.4177L29.42 86.2777L32.66 82.8277C32.89 82.5877 33.12 82.4077 33.35 82.2877L33.33 82.2177C33.07 82.2777 32.78 82.2877 32.45 82.2577L27.75 81.7477L26.97 79.6377L34.74 80.6877L37.54 79.6477L38.23 81.5177L35.43 82.5577H35.42Z" fill="#E1EF40"/>
<path d="M36.74 77.6978C36.56 78.0078 36.31 78.2078 35.99 78.2878C35.66 78.3678 35.34 78.3178 35.04 78.1178C34.74 77.9178 34.54 77.6578 34.45 77.3078C34.36 76.9578 34.41 76.6278 34.59 76.3278C34.77 76.0178 35.03 75.8278 35.36 75.7478C35.68 75.6678 35.99 75.7178 36.3 75.9078C36.6 76.0978 36.8 76.3678 36.88 76.7078C36.96 77.0478 36.92 77.3878 36.74 77.6978Z" fill="#E1EF40"/>
<path d="M25.97 75.1877L25.88 72.6277L33.36 69.5677L25.68 67.0577L25.59 64.5077L35.49 64.1477L35.55 65.9477L29.2 66.1777C28.79 66.1877 28.43 66.1777 28.11 66.1477V66.2577C28.47 66.2877 28.84 66.3577 29.21 66.4477L35.65 68.6277L35.71 70.3677L29.44 72.9877C29.07 73.1177 28.72 73.1977 28.39 73.2377V73.3477C28.66 73.2977 29.01 73.2777 29.45 73.2677L35.8 73.0377L35.86 74.8377L25.96 75.1977L25.97 75.1877Z" fill="#E1EF40"/>
<path d="M26.19 60.9779L27.81 54.0479L29.4 54.4179L28.24 59.3979L30.75 59.9879L31.74 55.7379L33.33 56.1078L32.34 60.3578L34.73 60.9179L35.89 55.9678L37.48 56.3379L35.87 63.2479L26.22 60.9979L26.19 60.9779Z" fill="#E1EF40"/>
<path d="M28.73 51.3677L30.46 47.9477C30.92 47.0277 31.52 46.3177 32.24 45.7977C32.96 45.2877 33.75 45.0077 34.61 44.9577C35.47 44.9077 36.34 45.1077 37.22 45.5577C38.1 46.0077 38.77 46.5777 39.25 47.3077C39.73 48.0377 39.97 48.8277 39.98 49.7177C39.99 50.5977 39.77 51.5077 39.3 52.4177L37.57 55.8377L28.72 51.3677H28.73ZM38.21 50.0477C38.18 49.4977 38 48.9877 37.67 48.5277C37.34 48.0677 36.88 47.6877 36.28 47.3877C35.68 47.0877 35.1 46.9377 34.54 46.9477C33.98 46.9477 33.46 47.1077 33 47.4177C32.54 47.7277 32.16 48.1677 31.87 48.7477L31.08 50.3177L37.02 53.3177L37.81 51.7477C38.1 51.1677 38.24 50.5977 38.21 50.0477Z" fill="#E1EF40"/>
<path d="M34.27 41.5678L35.48 39.9578L43.4 45.9078L42.19 47.5178L34.27 41.5678Z" fill="#E1EF40"/>
<path d="M39.13 35.8479L40.98 34.0979L50.47 38.7679L48.97 40.1879L46.95 39.1579L43.82 42.1179L44.73 44.1979L43.24 45.6079L39.13 35.8579V35.8479ZM45.52 38.3979L42.24 36.7779C41.77 36.5279 41.41 36.3079 41.18 36.1279L41.12 36.1879C41.26 36.3579 41.4 36.6179 41.57 36.9679C41.61 37.0679 41.66 37.1679 41.72 37.2679L43.14 40.6479L45.53 38.3879L45.52 38.3979Z" fill="#E1EF40"/>
<path d="M58.97 71.6878L65.64 71.4078L68.83 75.8178L82.48 63.7478L58.97 71.6878Z" fill="#FFF9E7"/>
<path d="M82.44 63.7578L73.94 63.5078L70.52 67.1278L82.44 63.7578Z" fill="#FFF9E7"/>
</svg>
