<svg width="147" height="147" viewBox="0 0 147 147" fill="none" xmlns="http://www.w3.org/2000/svg">
<g id="Layer_1" clip-path="url(#clip0_14_3971)">
<path id="Vector" d="M73.4957 146.991C114.086 146.991 146.991 114.086 146.991 73.4957C146.991 32.9052 114.086 0 73.4957 0C53.265 0 34.9435 8.17402 21.6535 21.3996C14.4236 28.5945 8.68272 37.2845 4.93375 46.9668C1.74746 55.1959 0 64.1417 0 73.4957C0 114.086 32.9052 146.991 73.4957 146.991Z" fill="#FF9242"/>
<g id="Group">
<path id="Vector_2" d="M53.307 21.3416L56.39 20.573L62.0264 28.8654L63.0939 18.8991L66.1598 18.1305L69.1403 30.0525L66.9797 30.5905L65.0667 22.9471C64.9471 22.4604 64.8617 22.0163 64.8276 21.6149L64.6909 21.649C64.7422 22.0931 64.7593 22.5543 64.7507 23.0325L63.7686 31.4018L61.6763 31.9227L56.8853 24.9967C56.6377 24.5783 56.4412 24.1684 56.3131 23.7841L56.1765 23.8182C56.3046 24.1257 56.4242 24.5441 56.5437 25.0821L58.4567 32.7255L56.2961 33.2635L53.3156 21.3416H53.307Z" fill="#E2F040"/>
<path id="Vector_3" d="M74.1106 18.0195L77.2704 18.1391L81.3867 30.5905L78.8247 30.4965L77.9793 27.815L72.6417 27.6185L71.5913 30.2318L69.0464 30.1379L74.1021 18.0281L74.1106 18.0195ZM77.3985 25.8935L75.9809 21.5893C75.793 20.9488 75.682 20.4449 75.6307 20.0862H75.5283C75.4941 20.351 75.3916 20.7096 75.2208 21.1623C75.1696 21.2904 75.1269 21.4185 75.0842 21.5636L73.3249 25.7483L77.3985 25.902V25.8935Z" fill="#E2F040"/>
<path id="Vector_4" d="M83.4363 30.7613C82.6933 29.9756 82.198 29.0447 81.9589 27.9687C81.7198 26.8926 81.7796 25.7483 82.1297 24.5527C82.4884 23.3485 83.0691 22.3664 83.8719 21.5978C84.6746 20.8292 85.6141 20.3253 86.6901 20.0777C87.7661 19.8386 88.8764 19.8813 90.0207 20.2229C91.0455 20.5303 91.891 20.9744 92.5827 21.5636C93.2659 22.1529 93.7613 22.819 94.0687 23.5535C94.3761 24.2879 94.5128 25.048 94.4786 25.8166L91.8739 25.8337C91.9252 25.0138 91.7287 24.2879 91.3103 23.6389C90.8833 22.9898 90.2513 22.5457 89.4144 22.2981C88.7141 22.0931 88.048 22.076 87.3904 22.2554C86.7413 22.4347 86.1692 22.7849 85.6738 23.3058C85.187 23.8268 84.8198 24.4843 84.5807 25.2786C84.3416 26.0728 84.2818 26.8243 84.4099 27.5246C84.5295 28.2249 84.8027 28.8227 85.2297 29.3266C85.6568 29.8219 86.1948 30.172 86.8609 30.3684C87.5014 30.5563 88.0907 30.6076 88.6201 30.5051C89.1496 30.4026 89.6108 30.1806 89.978 29.8304C90.3452 29.4717 90.61 29.0191 90.7637 28.4555L91.1224 29.096L87.1854 27.926L87.7576 26.0045L93.4453 27.6954L93.2916 28.3444C93.0097 29.4547 92.523 30.3855 91.8398 31.12C91.1565 31.8544 90.3282 32.3412 89.3631 32.5803C88.3981 32.8194 87.3562 32.7682 86.246 32.4437C85.1273 32.1106 84.1879 31.5555 83.4449 30.7698L83.4363 30.7613Z" fill="#E2F040"/>
<path id="Vector_5" d="M98.817 23.7072L100.892 24.9967L101.388 33.6137C101.439 34.4677 101.422 35.1423 101.353 35.6377L101.43 35.6804C101.678 35.168 102.02 34.5445 102.455 33.793L105.965 28.1395L107.946 29.3693L101.456 39.8052L99.3806 38.5157L98.8853 29.8987C98.8426 29.0362 98.8597 28.353 98.928 27.8577L98.8511 27.815C98.6035 28.3188 98.2619 28.9508 97.8263 29.7023L94.3078 35.3729L92.3265 34.1431L98.817 23.7072Z" fill="#E2F040"/>
<path id="Vector_6" d="M110.56 31.8117L112.413 33.4856L104.172 42.5978L102.318 40.9239L110.56 31.8117Z" fill="#E2F040"/>
<path id="Vector_7" d="M114.795 35.7145L120.261 42.3416L118.69 43.6397L114.813 38.9427L112.182 41.1118L115.658 45.3221L114.104 46.6031L110.628 42.3928L106.904 45.4673L105.316 43.5458L114.795 35.7231V35.7145Z" fill="#E2F040"/>
<path id="Vector_8" d="M121.653 44.6133L122.84 46.8081L113.822 51.693L116.418 56.4754L114.625 57.449L110.841 50.4717L121.645 44.6133H121.653Z" fill="#E2F040"/>
<path id="Vector_9" d="M118.357 57.3294L124.907 50.1387L125.855 52.8032L121.79 57.0305C121.499 57.3209 121.209 57.5429 120.927 57.6966L120.953 57.782C121.277 57.7137 121.636 57.7052 122.037 57.7479L127.862 58.4481L128.801 61.0785L119.176 59.6694L115.684 60.9162L114.847 58.5848L118.331 57.3379L118.357 57.3294Z" fill="#E2F040"/>
<path id="Vector_10" d="M116.64 63.3245C116.871 62.9402 117.178 62.7011 117.579 62.6072C117.989 62.5132 118.382 62.5815 118.758 62.8292C119.134 63.0683 119.373 63.4099 119.475 63.8455C119.578 64.281 119.51 64.6824 119.279 65.0667C119.048 65.4425 118.732 65.6816 118.322 65.7755C117.921 65.8695 117.537 65.8011 117.161 65.562C116.785 65.3229 116.546 64.9898 116.444 64.5543C116.341 64.1187 116.41 63.7088 116.632 63.3245H116.64Z" fill="#E2F040"/>
<path id="Vector_11" d="M129.963 66.5954L130.039 69.7723L120.714 73.4616L130.21 76.6812L130.287 79.841L117.998 80.1484L117.947 77.9195L125.829 77.7231C126.333 77.7145 126.786 77.7231 127.187 77.7743V77.6377C126.734 77.5864 126.282 77.5096 125.829 77.39L117.87 74.6059L117.819 72.4453L125.624 69.2855C126.085 69.1318 126.529 69.0378 126.931 68.9866V68.8499C126.598 68.9012 126.162 68.9353 125.616 68.9353L117.733 69.1318L117.682 66.9028L129.971 66.5954H129.963Z" fill="#E2F040"/>
<path id="Vector_12" d="M129.493 84.222L127.383 92.7963L125.419 92.318L126.931 86.1606L123.831 85.4006L122.541 90.6527L120.577 90.1745L121.867 84.9223L118.92 84.1964L117.417 90.3196L115.453 89.8414L117.554 81.3013L129.493 84.2306V84.222Z" fill="#E2F040"/>
<path id="Vector_13" d="M126.205 96.1013L124.01 100.32C123.421 101.456 122.678 102.336 121.781 102.959C120.885 103.582 119.894 103.924 118.826 103.967C117.759 104.009 116.683 103.753 115.598 103.19C114.514 102.626 113.685 101.9 113.105 100.995C112.524 100.089 112.233 99.0903 112.225 97.9972C112.225 96.904 112.515 95.7853 113.105 94.6495L115.299 90.4307L126.205 96.0927V96.1013ZM114.428 97.6043C114.454 98.2875 114.667 98.9195 115.069 99.4917C115.47 100.064 116.042 100.542 116.777 100.926C117.511 101.311 118.229 101.499 118.929 101.499C119.629 101.499 120.261 101.311 120.842 100.935C121.423 100.559 121.892 100.013 122.268 99.3038L123.276 97.3737L115.957 93.5734L114.949 95.5035C114.573 96.2208 114.403 96.9211 114.428 97.6043Z" fill="#E2F040"/>
<path id="Vector_14" d="M119.194 108.168L117.673 110.141L107.929 102.651L109.449 100.679L119.194 108.168Z" fill="#E2F040"/>
<path id="Vector_15" d="M113.096 115.197L110.773 117.34L99.0646 111.422L100.943 109.68L103.437 110.987L107.357 107.366L106.255 104.778L108.126 103.053L113.087 115.205L113.096 115.197ZM105.213 111.943L109.261 113.993C109.842 114.317 110.278 114.59 110.568 114.813L110.645 114.744C110.483 114.531 110.295 114.206 110.098 113.762C110.047 113.634 109.987 113.506 109.911 113.378L108.202 109.176L105.213 111.943Z" fill="#E2F040"/>
<path id="Vector_16" d="M94.342 127.751L91.2676 128.553L85.5372 120.329L84.5807 130.313L81.5234 131.115L78.4062 119.228L80.5669 118.664L82.5653 126.29C82.6934 126.777 82.7788 127.221 82.8215 127.623L82.9581 127.588C82.8983 127.144 82.8812 126.683 82.8898 126.213L83.7779 117.827L85.8703 117.281L90.7381 124.155C90.9943 124.574 91.1907 124.975 91.3274 125.359L91.464 125.325C91.3359 125.018 91.2078 124.599 91.0797 124.061L89.0813 116.435L91.242 115.871L94.3591 127.759L94.342 127.751Z" fill="#E2F040"/>
<path id="Vector_17" d="M73.5726 131.312L70.4128 131.227L66.1598 118.818L68.7218 118.886L69.6015 121.559L74.939 121.704L75.9553 119.083L78.5002 119.151L73.5726 131.312ZM70.1993 123.481L71.6682 127.768C71.8646 128.408 71.9841 128.904 72.0354 129.271H72.1379C72.172 129.006 72.266 128.647 72.4282 128.195C72.4795 128.067 72.5222 127.93 72.5649 127.793L74.2729 123.592L70.1993 123.481Z" fill="#E2F040"/>
<path id="Vector_18" d="M64.1102 118.681C64.8617 119.458 65.3656 120.381 65.6218 121.457C65.878 122.533 65.8268 123.677 65.4852 124.881C65.1436 126.085 64.5714 127.076 63.7771 127.853C62.9829 128.63 62.0521 129.151 60.976 129.399C59.9085 129.655 58.7983 129.621 57.6454 129.288C56.6206 128.998 55.7666 128.562 55.0663 127.981C54.3745 127.401 53.8707 126.743 53.5547 126.009C53.2387 125.274 53.0935 124.523 53.1192 123.745L55.7239 123.703C55.6897 124.523 55.8861 125.248 56.3131 125.889C56.7487 126.529 57.3806 126.974 58.2261 127.213C58.9264 127.409 59.6011 127.418 60.2501 127.23C60.8991 127.042 61.4628 126.692 61.9496 126.162C62.4364 125.633 62.7865 124.975 63.0171 124.172C63.2477 123.37 63.2904 122.627 63.1623 121.926C63.0342 121.226 62.7523 120.628 62.3253 120.133C61.8983 119.638 61.3432 119.296 60.6856 119.108C60.0451 118.929 59.4559 118.886 58.9179 118.989C58.3798 119.091 57.9357 119.322 57.5685 119.68C57.2013 120.039 56.9451 120.5 56.7999 121.064L56.4327 120.432L60.3867 121.559L59.8402 123.481L54.1354 121.858L54.2806 121.209C54.5539 120.09 55.0236 119.159 55.6983 118.416C56.3729 117.673 57.1928 117.178 58.1578 116.93C59.1228 116.683 60.1647 116.717 61.2749 117.033C62.4022 117.357 63.3416 117.904 64.0931 118.673L64.1102 118.681Z" fill="#E2F040"/>
<path id="Vector_19" d="M48.8235 125.906L46.7397 124.642L46.1419 116.034C46.0821 115.18 46.0907 114.505 46.159 114.01L46.0821 113.967C45.843 114.479 45.51 115.111 45.0744 115.863L41.6242 121.559L39.6259 120.346L45.9882 109.834L48.072 111.098L48.6698 119.706C48.721 120.569 48.7125 121.252 48.6442 121.747L48.721 121.79C48.9601 121.277 49.2932 120.645 49.7287 119.894L53.1875 114.189L55.1858 115.402L48.8235 125.915V125.906Z" fill="#E2F040"/>
<path id="Vector_20" d="M36.9784 117.93L35.1082 116.281L43.2468 107.075L45.1171 108.723L36.9784 117.93Z" fill="#E2F040"/>
<path id="Vector_21" d="M32.6913 114.078L27.1574 107.519L28.7117 106.204L32.6401 110.858L35.2448 108.664L31.7263 104.488L33.2721 103.19L36.7906 107.366L40.4799 104.248L42.0854 106.153L32.6913 114.078Z" fill="#E2F040"/>
<path id="Vector_22" d="M25.7397 105.256L24.527 103.078L33.4856 98.0911L30.8381 93.3343L32.6145 92.3436L36.4746 99.2782L25.7397 105.256Z" fill="#E2F040"/>
<path id="Vector_23" d="M28.8996 92.5144L22.4347 99.782L21.4526 97.1346L25.4665 92.856C25.7568 92.5571 26.0386 92.3351 26.3205 92.1814L26.2863 92.096C25.9618 92.1643 25.6031 92.1814 25.2017 92.1472L19.3689 91.5153L18.3953 88.8934L28.0285 90.1915L31.5043 88.902L32.3668 91.2249L28.891 92.5144H28.8996Z" fill="#E2F040"/>
<path id="Vector_24" d="M30.5392 86.4852C30.3172 86.8695 30.0012 87.1171 29.6084 87.2111C29.1984 87.3135 28.8056 87.2452 28.4298 87.0061C28.0541 86.767 27.8064 86.4339 27.7039 85.9984C27.6014 85.5628 27.6527 85.1614 27.8833 84.7771C28.1053 84.3928 28.4298 84.1537 28.8312 84.0512C29.2326 83.9488 29.6169 84.0171 29.9927 84.2562C30.3684 84.4868 30.6075 84.8199 30.7186 85.2554C30.8296 85.6909 30.7698 86.0923 30.5392 86.4852Z" fill="#E2F040"/>
<path id="Vector_25" d="M17.174 83.368L17.063 80.1911L26.3461 76.3993L16.8154 73.2822L16.7043 70.1224L28.9849 69.6783L29.0618 71.9073L21.1879 72.1891C20.684 72.2062 20.2314 72.1891 19.83 72.1464V72.283C20.2826 72.3257 20.7353 72.4026 21.1964 72.5136L29.1814 75.2123L29.2582 77.3729L21.4868 80.6181C21.0256 80.7719 20.5901 80.8829 20.1801 80.9256V81.0622C20.5132 81.0024 20.9488 80.9683 21.4953 80.9597L29.3692 80.6779L29.4461 82.9069L17.1655 83.351L17.174 83.368Z" fill="#E2F040"/>
<path id="Vector_26" d="M17.4473 65.7499L19.4542 57.1501L21.4184 57.6112L19.9752 63.7857L23.0838 64.5116L24.3135 59.2424L26.2777 59.7035L25.048 64.9728L28.0028 65.6645L29.4376 59.5242L31.4018 59.9854L29.4034 68.551L17.4388 65.7584L17.4473 65.7499Z" fill="#E2F040"/>
<path id="Vector_27" d="M20.5986 53.828L22.7422 49.5836C23.3143 48.4477 24.0488 47.5596 24.9455 46.9191C25.8337 46.2786 26.8158 45.937 27.8918 45.8772C28.9593 45.8174 30.0439 46.0651 31.1285 46.6202C32.2131 47.1753 33.05 47.8926 33.6478 48.7893C34.2456 49.6861 34.5445 50.6767 34.5616 51.7784C34.5787 52.8715 34.2969 53.9902 33.7247 55.1346L31.5811 59.379L20.6071 53.8365L20.5986 53.828ZM32.3583 52.1968C32.3241 51.5136 32.1021 50.8817 31.6921 50.318C31.2822 49.7544 30.71 49.2761 29.967 48.9089C29.2241 48.5331 28.5067 48.3538 27.8064 48.3623C27.1061 48.3623 26.4742 48.5673 25.902 48.9431C25.3298 49.3188 24.8601 49.8739 24.5014 50.5913L23.5193 52.5384L30.8808 56.2619L31.8629 54.3148C32.2302 53.5974 32.3924 52.8886 32.3583 52.2054V52.1968Z" fill="#E2F040"/>
<path id="Vector_28" d="M27.4819 41.6755L28.9764 39.6856L38.806 47.0643L37.3115 49.0541L27.4819 41.6755Z" fill="#E2F040"/>
<path id="Vector_29" d="M33.5026 34.5787L35.7999 32.4095L47.5681 38.1911L45.7064 39.9504L43.1956 38.6779L39.3184 42.3416L40.4542 44.9207L38.601 46.6714L33.5026 34.5787ZM41.4278 37.7471L37.3627 35.7401C36.7735 35.4242 36.3379 35.1594 36.0476 34.9288L35.9707 34.9972C36.1415 35.2107 36.3208 35.5352 36.5258 35.9707C36.577 36.0988 36.6454 36.2184 36.7137 36.3465L38.4729 40.5311L41.4363 37.73L41.4278 37.7471Z" fill="#E2F040"/>
</g>
<g id="Group_2">
<path id="Vector_30" d="M46.808 72.1208L60.4978 76.1261L63.9479 87.2367L99.8589 72.1208H46.808Z" fill="#804CE2"/>
<path id="Vector_31" d="M99.7564 72.1208L82.719 65.8011L73.3335 70.7885L99.7564 72.1208Z" fill="#804CE2"/>
</g>
</g>
<defs>
<clipPath id="clip0_14_3971">
<rect width="147" height="147" fill="white"/>
</clipPath>
</defs>
</svg>
