<svg width="83" height="82" viewBox="0 0 83 82" fill="none" xmlns="http://www.w3.org/2000/svg">
<g id="Layer_1" clip-path="url(#clip0_14_3962)">
<path id="Vector" d="M74.9148 48.7392L56.8565 47.5002L70.2491 59.5972L53.6767 52.3238L62.0806 68.1962L48.9829 55.7839L51.4306 73.4991L43.3865 57.4452L39.5278 74.8778L37.5319 57.1023L27.8753 72.1571L32.1353 54.8182L17.8137 65.65L27.8486 50.8494L10.6132 56.1792L25.1769 45.6694L7.09712 44.8521L24.4619 39.9365L7.72208 33.0506L25.7814 34.2851L12.3878 22.1926L28.9602 29.4661L20.5563 13.5936L33.654 26.0059L31.2073 8.28623L39.2515 24.3401L43.1091 6.91197L45.1015 24.682L54.7617 9.63268L50.5027 26.9672L64.8243 16.1353L54.7837 30.9394L72.0238 25.6106L57.46 36.1204L75.5398 36.9377L58.1761 41.8488L74.9148 48.7392Z" fill="#FF9242"/>
</g>
<defs>
<clipPath id="clip0_14_3962">
<rect width="69" height="67" fill="white" transform="translate(15.339 0.42804) rotate(13.1423)"/>
</clipPath>
</defs>
</svg>
