<svg width="80" height="79" viewBox="0 0 80 79" fill="none" xmlns="http://www.w3.org/2000/svg">
<g clip-path="url(#clip0_14_4011)">
<path d="M74.0566 34.0149L56.8987 39.7807L73.9011 45.8319L55.8068 45.4539L69.645 56.9022L52.7944 50.447L61.835 65.877L48.2597 54.1233L51.3658 71.7057L42.7195 56.047L39.5591 73.6512L36.8596 56.0019L27.7733 71.4897L31.3805 53.9756L17.4965 65.4954L26.9299 50.2123L9.91353 56.3759L24.0755 45.1894L5.97475 45.2336L23.1319 39.4632L6.13023 33.4166L24.2245 33.7945L10.3863 22.3463L27.237 28.8015L18.1956 13.3669L31.7709 25.1206L28.6655 7.54277L37.3065 23.1977L40.4723 5.59722L43.171 23.242L52.2574 7.75417L48.6463 25.2736L62.5348 13.7531L53.1015 29.0361L70.1178 22.8725L55.9552 34.0545L74.0566 34.0149Z" fill="#E2F040"/>
</g>
<defs>
<clipPath id="clip0_14_4011">
<rect width="69" height="67" fill="white" transform="translate(0.528 12.1793) rotate(-9.35724)"/>
</clipPath>
</defs>
</svg>
